PathFileType	4	(X/Y/Z)	c:/Users/goper/Files/vsCode/490R/osim_files/C06/C06_ROM.trc
DataRate	CameraRate	NumFrames	NumMarkers	Units                	OrigDataRate	OrigDataStartFrame	OrigNumFrames
250.00	250.00	6	36	mm	250.0	1711	3421
                Frame#	Time	LPSIS			LASIS			LTH1			LTH2			LTH3			LTH4			LLFE			LMFE			LSH1			LSH2			LSH3			LSH4			LLMAL			LMMAL			LCAL			LMTP5			LTOE			LMTP1			RPSIS			RASIS			RTH1			RTH2			RTH3			RTH4			RLFE			RMFE			RSH1			RSH2			RSH3			RSH4			RLMAL			RMMAL			RCAL			RMTP1			RTOE			RMTP5		
		X1	Y1	Z1	X2	Y2	Z2	X3	Y3	Z3	X4	Y4	Z4	X5	Y5	Z5	X6	Y6	Z6	X7	Y7	Z7	X8	Y8	Z8	X9	Y9	Z9	X10	Y10	Z10	X11	Y11	Z11	X12	Y12	Z12	X13	Y13	Z13	X14	Y14	Z14	X15	Y15	Z15	X16	Y16	Z16	X17	Y17	Z17	X18	Y18	Z18	X19	Y19	Z19	X20	Y20	Z20	X21	Y21	Z21	X22	Y22	Z22	X23	Y23	Z23	X24	Y24	Z24	X25	Y25	Z25	X26	Y26	Z26	X27	Y27	Z27	X28	Y28	Z28	X29	Y29	Z29	X30	Y30	Z30	X31	Y31	Z31	X32	Y32	Z32	X33	Y33	Z33	X34	Y34	Z34	X35	Y35	Z35	X36	Y36	Z36

1711	6.84000	-483.72070	698.94971	441.13214	-346.88757	701.27637	342.02670	-376.78650	525.09534	237.54124	-319.26382	500.98859	228.43674	-338.82593	587.56134	262.34283	-286.93634	554.54236	250.29979	-89.68354	409.21127	210.00121	-84.73129	377.51895	325.31717	-179.61514	346.51099	190.40877	-195.89070	305.35239	188.86899	-121.60246	317.10693	190.25259	-146.65491	281.03113	187.49329	-303.91122	92.72655	209.36333	-286.60852	98.88561	288.23663	-373.08075	66.48491	253.93742	-200.36708	28.32116	172.77229	-146.62979	54.83625	238.79514	-170.55055	37.31779	285.58719	-487.14560	692.83734	511.23965	-337.98825	676.67792	566.36450	-367.24643	500.27817	675.15936	-310.71942	473.05142	676.47150	-329.14270	563.43921	657.84833	-278.00192	527.68103	663.16852	-75.90477	376.28067	690.67340	-50.41247	389.21161	570.21936	-149.47166	344.17038	700.56451	-173.41017	302.37445	707.09332	-100.82256	306.44174	697.33899	-132.06894	270.70486	701.74902	-302.14517	90.44790	678.87823	-275.44916	101.74454	598.91418	-376.28302	62.59292	635.16620	-172.64882	46.88733	609.46472	-151.09761	52.72787	649.57660	-198.04358	25.30444	714.90192
1712	6.84400	-483.90436	697.04572	441.11777	-347.10590	700.71161	342.11322	-376.71826	523.77100	237.58907	-319.42374	499.73557	228.80363	-338.83926	586.31042	262.44144	-286.95673	553.32471	250.51013	-89.33654	408.89661	210.08640	-84.36065	377.20441	325.42645	-179.33357	346.33673	190.53313	-195.65479	305.23877	188.93832	-121.38417	316.87802	190.34827	-146.45358	280.78247	187.58170	-303.89166	92.71183	209.37921	-286.54468	98.85169	288.29462	-373.09451	66.47881	253.94722	-200.37805	28.29832	172.76979	-146.63106	54.80257	238.78430	-170.55453	37.30411	285.58530	-487.30551	690.92554	511.24655	-338.23022	676.05029	566.41180	-367.07294	498.87036	675.15240	-310.57159	471.85114	676.49750	-329.27188	562.16168	657.82458	-278.02533	526.64221	663.12750	-75.60339	375.99994	690.76758	-50.12328	388.90433	570.26062	-149.20740	343.99033	700.65356	-173.19191	302.17514	707.16040	-100.56644	306.19168	697.40973	-131.84883	270.49780	701.83472	-302.10370	90.40106	678.89807	-275.39764	101.72641	598.92871	-376.27823	62.57552	635.18237	-172.62894	46.89578	609.49237	-151.28987	52.56326	649.72522	-198.06421	25.23727	714.91620
1713	6.84800	-484.01654	695.13953	441.14807	-347.31573	700.17053	342.20056	-376.63220	522.43915	237.63768	-319.02069	498.67422	228.55032	-339.00876	585.01367	262.64389	-286.89529	552.15942	250.69887	-89.03506	408.57849	210.18253	-83.97739	376.81223	325.56345	-179.06970	346.17188	190.65924	-195.37921	305.14902	189.00446	-121.14094	316.66879	190.43242	-146.19850	280.62204	187.63832	-303.89789	92.68956	209.42152	-286.51230	98.77971	288.32224	-373.10065	66.47331	253.96147	-200.36986	28.24071	172.74207	-146.63538	54.76822	238.76578	-170.54059	37.29763	285.58994	-487.45462	689.05347	511.24945	-338.46252	675.44781	566.46069	-366.97336	497.36557	675.15643	-310.49100	470.67407	676.49261	-329.45297	560.95386	657.75122	-278.09540	525.52936	663.13184	-75.40647	375.76254	690.87555	-49.78724	388.59186	570.35156	-149.03366	343.77719	700.70691	-173.01086	302.03119	707.23248	-100.40109	305.84290	697.67590	-131.68021	270.28641	701.92358	-302.10876	90.34245	678.93005	-275.37140	101.71645	598.96948	-376.26904	62.56189	635.22058	-172.64091	46.87993	609.50549	-151.31136	52.51204	649.75421	-198.07965	25.18830	714.93207
1714	6.85200	-484.14948	693.31238	441.15512	-347.51706	699.65308	342.28876	-376.57486	521.21930	237.66438	-319.15494	497.46759	228.94588	-339.10959	583.84760	262.83569	-286.88809	550.98181	250.91103	-88.77429	408.30740	210.25212	-83.77414	376.35211	325.61322	-178.79564	346.01273	190.81757	-195.16809	305.03055	189.11868	-120.89694	316.44604	190.52075	-145.95886	280.42050	187.71538	-303.89337	92.67686	209.45525	-286.48148	98.70266	288.33450	-373.10806	66.45903	253.95303	-200.36961	28.21250	172.74301	-146.99017	54.44347	238.80304	-170.54759	37.27651	285.59204	-487.57166	687.25897	511.22223	-338.68509	674.87061	566.51117	-366.81885	495.95520	675.11499	-310.46036	469.52182	676.52026	-329.63660	559.68292	657.71729	-278.07910	524.48627	663.13721	-75.16653	375.51013	690.98627	-49.49797	388.34076	570.42407	-148.82167	343.57428	700.72919	-172.85220	301.86722	707.26764	-100.24535	305.60806	697.75800	-131.54498	270.07510	701.99231	-302.14264	90.27489	678.95428	-275.35098	101.70338	599.02203	-376.23547	62.54963	635.25549	-172.64404	46.87036	609.54175	-151.31894	52.48279	649.81238	-198.08151	25.11349	714.96033
1715	6.85600	-484.33841	691.61169	441.25018	-347.70984	699.15930	342.37775	-376.39288	519.93530	237.63844	-318.74539	496.47205	228.72607	-339.21283	582.65637	262.97910	-287.15082	550.44348	250.93758	-88.52096	408.02371	210.33850	-83.48058	376.03900	325.71799	-178.52440	345.85379	190.95312	-194.94272	304.86130	189.29030	-120.66946	316.19919	190.61507	-145.74969	280.25540	187.79030	-303.87140	92.66939	209.49818	-286.43689	98.65576	288.35629	-373.14813	66.45164	253.97177	-200.33217	28.18797	172.73103	-146.63908	54.68695	238.76028	-170.55528	37.26579	285.58829	-487.72220	685.47925	511.17288	-338.89795	674.31866	566.56317	-367.22278	494.97205	674.88678	-310.33438	468.40869	676.58887	-329.75491	558.59021	657.66705	-278.15652	523.49792	663.09399	-74.89272	375.24719	691.15521	-49.21867	388.09595	570.52197	-148.70280	343.40326	700.76538	-172.69620	301.71515	707.32001	-100.03671	305.45209	697.85712	-131.41014	269.89862	702.09845	-302.16287	90.24047	678.96997	-275.29996	101.71345	599.06860	-376.21243	62.54855	635.27631	-172.64629	46.87941	609.56024	-151.32549	52.45669	649.84613	-198.10016	25.06022	715.01666
1716	6.86000	-484.44244	689.85522	441.21121	-347.89413	698.68915	342.46750	-376.12354	518.90723	237.54294	-318.51117	495.32874	228.80611	-339.24857	581.46375	263.16595	-287.13434	549.39288	251.10970	-88.19411	407.70953	210.45116	-83.18731	375.61752	325.75192	-178.30022	345.71173	191.06615	-194.82042	304.70969	189.47734	-120.42129	315.99948	190.69028	-145.58337	280.09369	187.84758	-303.87210	92.65509	209.52879	-286.39941	98.60035	288.37979	-373.13928	66.42736	253.97169	-200.32574	28.15429	172.73039	-146.97037	54.38169	238.80719	-170.55099	37.24616	285.58734	-487.89496	683.73895	511.19885	-339.10110	673.79211	566.61676	-367.11920	493.76767	674.93262	-310.15521	467.31464	676.62415	-329.85196	557.46771	657.68311	-278.12036	522.49280	663.10919	-74.61390	375.00403	691.32642	-49.02101	387.78510	570.63434	-148.53645	343.25922	700.79773	-172.58340	301.65210	707.36761	-99.85374	305.30322	697.98425	-131.32541	269.75272	702.19019	-302.16498	90.19917	678.99805	-275.23495	101.74950	599.11401	-376.19086	62.51499	635.30133	-172.63152	46.89040	609.58752	-151.32150	52.43491	649.90454	-198.10286	25.03403	715.05481
